<?xml version="1.0" encoding="utf-8"?>
<svg version="1.1" xmlns="http://www.w3.org/2000/svg" xmlns:xlink="http://www.w3.org/1999/xlink" x="0px" y="0px" viewBox="10 150 240 350" style="enable-background:new 0 0 750 500;" xml:space="preserve">
  <g id="OBJECTS">
    <path d="M229.474,296.578c-1.518-2.536-3.658-4.585-6.074-6.064c-2.421-1.478-5.133-2.433-7.98-2.737
		c-2.838-0.314-5.826,0.003-8.626,1.067c-2.801,1.049-5.349,2.88-7.255,5.115c-1.923,2.235-3.217,4.793-4.088,7.331
		c-0.475,1.279-0.738,2.545-1.034,3.822c-0.124,0.634-0.199,1.259-0.297,1.891c-0.098,0.632-0.185,1.263-0.213,1.878
		c-0.402,4.982,0.072,9.734,0.902,14.296c0.858,4.553,2.021,8.978,3.483,13.225l1.977,6.012c0.607,1.98,1.239,3.952,1.784,5.944
		c2.286,7.941,4.012,15.992,5.08,24.007c0.472,4.005,0.836,8.002,0.899,11.943c0.038,3.933-0.1,7.827-0.612,11.567
		c-1.055,7.444-3.377,14.383-7.506,19.279c-1.751,2.133-3.8,3.911-6.091,5.403c0.009-0.974-0.048-1.912-0.186-2.796
		c-1.494-9.563-8.219-28.989-8.219-28.989s1.195,1.195-0.747-1.046c-1.943-2.241-10.61-14.644-10.61-14.644
		s-6.575-21.368-13.897-29.736c-7.322-8.368-20.322-28.989-20.322-28.989h1.494l-4.483-8.368l2.092,1.345
		c0,0-4.035-8.966-6.724-12.104l-0.299-7.322l-1.943-1.943l1.943,0.15c0,0-9.265-21.667-9.414-22.116
		c-0.149-0.448-1.942-17.782-1.942-17.782l-1.793,0.598l0.149-6.874l-1.942,2.391l0.299-2.69l-1.195,0.448L115.037,238
		c0,0,1.046-5.753-0.523-13.038c-1.569-7.285-4.707-10.871-8.069-10.423c-3.362,0.448-5.828,3.81-7.173,8.181
		c-1.345,4.371-8.069,10.983-8.069,10.983s-5.94-0.785-14.569,1.121c0,0-6.276-5.043-11.207-9.526
		c-4.931-4.483-9.638-5.716-11.095-2.802c-1.457,2.914,2.353,10.759,3.026,14.345c0.672,3.586,2.354,11.431,2.354,11.431
		l-0.785,3.25c0,0-3.138,3.362-3.362,7.621c-0.224,4.259,1.793,8.966,1.793,8.966s-2.129,8.854,3.922,14.794
		c0,0,2.242,5.604,9.078,5.94l-4.147,4.371h2.017c0,0-3.81,3.138-5.716,6.612l2.017-0.672c0,0-5.977,15.653-2.988,27.607
		c2.988,11.954,17.67,118.31,17.782,121.897c0.112,3.586-1.793,14.457-1.793,14.457s-7.173,1.121-8.405,2.802
		c-1.233,1.681-2.69,8.181-0.56,11.543h1.569c0,0,4.819,2.353,9.078,0.897c0,0,3.698,1.96,6.836,0.476s8.742-12.692,8.63-13.364
		s-0.224,0-0.112-1.121s0.112-1.121,0.112-1.121l0.897-23.759l0.785,0.785l-0.56-9.302l0.897,0.56l-0.635-10.161l7.696,29.213
		c0.224,3.81-0.897,12.328-0.897,12.328s-5.716,2.578-6.052,2.69c-0.336,0.112-2.466,6.276-0.785,12.552l2.69,0.336
		c0,0,7.957,2.129,11.207,0.224c0,0,4.371,0,6.052-1.233s3.474-5.94,3.586-6.276c0.112-0.336,0.673-8.069,0.673-8.069l2.69-7.733
		l-0.896-0.112l0.896-1.233l0.897-4.819c0,0,7.061,15.914,10.198,16.811c3.138,0.897,7.023,1.793,7.023,1.793l-0.747,2.914
		c0,0-0.299,2.764,4.931,3.138c0,0,6.5,1.868,9.489,0c0,0,2.466,0.374,3.81-0.598c1.345-0.971,6.799-5.081,6.799-5.081
		s16.064-3.213,17.408-4.857c1.211-1.48,3.875-16.603,4.393-19.6c0.42-0.111,0.84-0.202,1.26-0.321
		c4.85-1.486,9.723-3.44,14.188-6.428c4.453-2.958,8.448-6.759,11.564-11.093c3.125-4.327,5.42-9.113,6.872-13.926
		c1.484-4.817,2.292-9.654,2.69-14.41c0.371-4.757,0.263-9.422-0.048-14.016c-0.339-4.59-1.007-9.079-1.793-13.517
		c-1.693-8.839-4.067-17.411-6.981-25.733c-0.704-2.091-1.492-4.146-2.256-6.208l-2.372-6.033c-1.539-3.746-2.754-7.548-3.7-11.336
		c-0.924-3.782-1.479-7.582-1.397-11.133c-0.013-0.454,0.027-0.882,0.071-1.308c0.043-0.426,0.062-0.866,0.118-1.283
		c0.152-0.809,0.256-1.651,0.497-2.389c0.418-1.519,1.025-2.869,1.825-3.933c1.568-2.117,4.01-3.238,6.873-3.128
		c2.84,0.097,5.725,1.647,7.222,3.813l0.1,0.145c1.35,1.943,3.995,2.534,6.055,1.301
		C230.061,301.515,230.761,298.728,229.474,296.578z"/>
  </g>
</svg>
