<?xml version="1.0" encoding="utf-8"?>
<svg version="1.1" xmlns="http://www.w3.org/2000/svg" xmlns:xlink="http://www.w3.org/1999/xlink" x="0px" y="0px" viewBox="290 140 300 400" style="enable-background:new 0 0 750 500;" xml:space="preserve">
  <g id="OBJECTS">
    <path d="M503.683,375.637c-1.267-23.013-8.445-26.18-10.345-31.247c-1.9-5.067-7.956-25.463-9.453-35.128
		c-1.737-11.215-9.435-11.945-9.435-11.945c9.712-7.706,9.166-23.105,9.166-23.105l-1.52,0.611l0.356-2.43l-1.148,1.269
		c0,0,0-9.184-0.105-11.507c-0.106-2.322-2.27-8.181-2.27-8.181c3.114-3.272,2.059-7.389,2.059-7.389
		c0.792-1.689,1.478-12.932,0.845-19.107c-0.633-6.176-2.586-7.917-8.445-5.173c-5.859,2.745-15.94,15.624-15.94,15.624
		c-2.692,0.264-4.962,3.079-4.962,3.079c-5.701-3.255-13.97,0-13.97,0s-0.985-1.548-5.138-2.604c0,0-11.612-14.075-17.665-15.905
		c-6.052-1.83-7.741,1.76-7.46,7.742c0.281,5.982,0.352,11.894,1.337,13.16c0,0-0.704,1.9,0.211,3.237c0,0-1.056,3.237,2.745,8.023
		c0,0-2.885,4.434-2.885,7.319c0,2.885,0.985,14.357,0.985,14.357l-1.478-0.563l0.845,2.463h-0.845c0,0,0.606,11.894,8.607,21.183
		c0,0-7.411,4.223-7.2,15.413c0.211,11.19-0.211,18.157-5.067,25.547c-4.856,7.39-7.53,24.421-7.53,24.421l1.83-2.111l-0.985,3.8
		h1.689c0,0-1.407,11.401-6.475,24.773c-4.643,12.252-12.581,33.603-2.402,53.442c-9.871,2.023-27.268,1.935-34.053-20.928
		c-8.845-29.803,7.176-43.496,19.836-34.381c2.965,2.135,7.168,1.477,9.014-1.676c0.885-1.512,1.232-3.241,0.244-5.008
		c-2.892-5.173-18.116-13.407-32.684-4.117c-14.568,9.29-22.802,49.827,0,73.896c16.986,17.929,39.586,16.762,50.016,14.999
		c0.004,0.908,0.04,1.779,0.128,2.524c0.422,3.589,8.076,4.803,8.076,4.803c3.484,4.962,6.915,3.167,6.915,3.167
		c6.176,1.9,8.445-1.953,8.445-1.953s-0.053,2.164,1.214,4.223c1.267,2.059,5.489,1.9,5.489,1.9c2.85,2.217,7.706,0.317,7.706,0.317
		c3.484,1.478,7.653,0,7.653,0c5.331,0.211,5.859-4.434,5.859-4.434s1.108,2.798,3.114,4.064c2.006,1.267,6.281,0.37,6.281,0.37
		c4.856,1.847,7.812-0.475,7.812-0.475c4.856,2.586,7.178,0,7.178,0c3.22-1.425,2.745-3.959,2.745-3.959
		c6.123,1.372,6.545-0.792,6.545-0.792c3.378-0.739,2.692-5.964,2.692-5.964s14.99-12.879,20.269-33.992
		C517.406,416.174,504.95,398.65,503.683,375.637z"/>
  </g>
</svg>
