<?xml version="1.0" encoding="utf-8"?>
<svg version="1.1" xmlns="http://www.w3.org/2000/svg" xmlns:xlink="http://www.w3.org/1999/xlink" x="0px" y="0px" viewBox="400 20 350 300" style="enable-background:new 0 0 750 500;" xml:space="preserve">
  <g id="OBJECTS">
    <path d="M555.365,65.163l-7.775-8.63c0,0-5.987-11.973-7.153-13.528c-1.166-1.555-1.166-1.555-1.166-1.555
		s-2.799,2.721-1.011,10.496s0.233,15.783,0.233,15.783s-11.896,10.263-12.051,11.274c-0.155,1.011,0,2.177,0,2.177
		s-1.711,2.332-1.788,4.82c-0.078,2.488,0,7.775,0,7.775s-3.188,1.866-3.11,5.987c0.078,4.121,4.509,5.365,4.509,5.365
		s0,6.22,8.63,7.231c0,0-12.906,3.81-15.55,9.33l2.643-1.477l-4.276,6.686l1.866-0.777c0,0-5.909,10.807-7.619,15.161
		c-1.71,4.354-1.788,10.729-1.788,10.729h-2.021c0,0-19.204-9.485-23.947-10.652c-4.743-1.166-12.829-4.121-12.984-4.354
		c-0.155-0.233-5.131-3.577-8.941-4.665c-3.81-1.089-9.408-3.81-14.306-3.654s-6.92,5.676-6.92,6.609
		c0,0.933,1.166,4.898,3.576,5.442s3.81,0.389,3.81,0.389s3.965,2.255,6.531,1.244l11.973,6.997l-0.622,0.622l4.665,2.021
		l40.507,29.622l1.555,0.933l-0.466,2.799l2.838-3.46l-0.505,2.333l1.477-1.166l1.477,3.771l1.322-2.721l0.661,1.905l0.622-1.477
		l1.749,2.294c0,0,6.764-0.972,8.241-4.315l10.885,21.653h1.866l-1.71,2.021l1.555,0.778l-2.955,31.411l-6.531,33.587
		c0,0-3.071-0.777-4.237-0.35c-1.166,0.428-5.054,7.231-4.937,8.513c0.117,1.283,1.788,4.354,2.877,4.626
		c1.088,0.272,15.472,0.194,15.472,0.194s5.287-6.842,5.676-8.241c0.389-1.4,2.177-9.719,2.177-9.719l0.778,0.933l3.343-13.45
		l2.021-0.622l-1.166-0.933l1.166-0.544l7.075-18.271v-8.63l2.099,10.03c0,0-3.849,14.578-3.265,15.744
		c0.583,1.166,7.347,13.528,7.347,13.528s-10.03-2.624-10.205-2.682c-0.175-0.058-5.656,1.749-5.656,1.749s-2.449,6.823-2.216,8.863
		c0.233,2.041,2.682,3.032,2.682,3.032l6.531,0.175c0,0-5.948,4.782-6.123,5.248c-0.175,0.466,0.233,6.356,0.233,6.356
		s3.382,3.266,4.432,3.266c1.05,0,14.111,0,14.111,0s47.816-2.857,51.081-3.091c3.266-0.233,4.023-2.566,4.023-2.566l9.563,0.058
		c0,0,26.94,0.233,35.22,2.216c8.28,1.983,28.573,6.997,28.573,6.997s-11.429,0.466-16.327,0s-15.511-3.434-21.809,0.207
		c-6.298,3.641-1.866,9.239,9.213,10.639c11.079,1.4,45.25,5.015,52.131,1.4c6.881-3.615,3.149-13.179,3.149-13.179l2.332,2.216
		c0,0-3.732-6.764-9.563-10.963l2.332,0.233c0,0-8.747-5.481-30.439-9.563c-21.692-4.082-40.118-6.764-44.783-11.079
		c-4.665-4.315-3.732-11.546,1.633-20.292c5.365-8.747,6.298-34.637,0.933-54.463l2.566,3.032l-5.831-17.617l1.866,1.523
		c0,0-5.365-21.925-19.671-32.81l3.266,0.156c0,0-7.619-5.287-17.26-10.107c-9.641-4.82-18.815-9.36-25.968-10.744
		c-7.153-1.384-13.217-3.717-12.751-7.138l1.536-1.691l0.058-1.341l3.615,1.224l-1.05-2.857l2.274,1.983l-0.641-3.907l1.224,1.05
		l-0.991-8.747l2.099,1.924l-3.032-8.747l0.758-6.356c0,0,3.174-3.907,4.707-9.621c1.533-5.715,7.364-12.712,6.081-20.876
		c0,0-14.461,10.496-17.727,10.729c-3.266,0.233-8.397,0.35-8.397,0.35S562.751,65.551,555.365,65.163z"/>
  </g>
</svg>
