<?xml version="1.0" encoding="utf-8"?>
<svg version="1.1" xmlns="http://www.w3.org/2000/svg" xmlns:xlink="http://www.w3.org/1999/xlink" x="0px" y="0px"
	 viewBox="150 0 250 300" style="enable-background:new 0 0 750 500;" xml:space="preserve">

<g id="OBJECTS">
	<path d="M190.601,131.918c0.658,5.484,6.032,43.32,6.032,43.32l2.084,3.619l-2.084-1.097c0,0,1.755,3.51,5.155,7.238
		c3.4,3.729,3.729,4.716,3.729,12.064c0,7.348,5.593,27.747,5.593,27.747l1.366-2.157l1.011,7.165l0.292-1.17l3.363,9.432
		l-0.219-2.34c0,0,3.363,11.04,3.29,14.33c-0.073,3.29-1.81,8.792-1.81,8.792l-1.59,0.987c0,0-4.168,0.603-4.332,4.606
		c-0.165,4.003,3.564,4.113,3.564,4.113c1.426,1.206,4.826,0.329,4.826,0.329c1.864,2.084,7.458,1.645,7.458,1.645
		c0.987,1.316,3.4,1.426,3.4,1.426s0,0.987,1.316,2.193c1.316,1.206,6.69,1.206,6.69,1.206c1.206,1.426,9.541,1.755,13.051,0
		c3.51-1.755,6.909-17.657,6.909-17.657c7.238,5.703,23.799,3.839,23.799,3.839c0,5.922,4.168,5.703,4.168,5.703
		c2.632,5.374,9.103,2.742,9.103,2.742c3.29,1.864,7.75,0.402,10.529-2.376c2.778-2.778,17.694-3.656,24.859-5.995
		c7.165-2.34,6.727-7.604,6.727-7.604c3.071-1.901,2.925-5.557,2.925-5.557s23.104,0.731,34.51-10.675
		c11.406-11.406,17.954-29.649,10.236-45.916c-9.505-20.033-27.637-20.911-35.387-27.637c-5.953-5.167-16.816,0.877-8.481,10.09
		c8.889,9.825,34.364,11.991,31.074,33.486c-4.035,26.365-40.359,21.715-40.578,18.863c-0.219-2.851-4.168-6.141-3.29-14.477
		c0.877-8.335-3.071-9.651-3.071-9.651s-2.193-26.76-10.528-52.642c-8.335-25.883-30.269-31.805-38.166-34.876
		c-7.896-3.071-5.264-11.918-5.264-11.918l1.608,1.535c-0.731-3.363-3.354-6.836-3.354-6.836l1.745-5.155l3.071,0.658v-1.755h1.097
		l1.316-5.045c0,0,3.29-0.548,5.264-1.206c1.974-0.658,12.283-6.032,15.793-11.516c3.509-5.484,1.974-7.896-1.426-8.664
		c-3.4-0.768-17.767-2.303-17.767-2.303c-3.948-4.935-10.09-8.943-10.09-8.943c-1.426-5.324-4.716-10.25-4.716-10.25
		s1.316-8.445,1.645-12.338c0.329-3.893,0.987-9.267-5.264-8.061c-6.251,1.206-14.696,10.967-14.696,10.967
		c-3.948,0.658-6.251,5.154-6.251,5.154c-8.883,0.11-14.696,9.98-17.657,15.244c-2.961,5.264-9.98,20.07-9.98,20.07l-4.168,5.264
		l2.413-1.535c0,0-13.161,18.863-18.644,26.76C187.311,113.055,189.943,126.435,190.601,131.918z M234.909,219.071l5.118,14.038
		l-3.217,27.345L234.909,219.071z"/>

	
</g>
</svg>
