<?xml version="1.0" encoding="utf-8"?>
<svg version="1.1" xmlns="http://www.w3.org/2000/svg" xmlns:xlink="http://www.w3.org/1999/xlink" x="0px" y="0px" viewBox="115 150 300 350" style="enable-background:new 0 0 750 500;" xml:space="preserve">
  <g id="OBJECTS">
    <path d="M358.691,232.783c4.111-4.111,13.111-17.667,13.556-21.778c0.444-4.111,0.222-5.741-1.333-7.445
		c0,0-0.111-4.167-2.055-7.111c-1.945-2.944-4.278-4.889-4.278-4.889s-2.167-4.611-5.333-4.222c-3.167,0.389-6.5,4.222-6.5,4.222
		s-10.167,7.167-13.389,7.944s-5.889,1.055-8.111,0.222c-2.222-0.833-5.5-1.778-9.667-0.722c-4.167,1.055-6.444-0.278-11.833,3.111
		c-5.389,3.389-10,6.889-13.111,10.222c-3.111,3.333-6.111,3.222-8,6.5c-1.889,3.278-6.056,1.833-7.389,6.945
		c-1.333,5.111-0.222,11.167-3.111,14.944c-2.889,3.778,7,8.333,8.167,7.944c1.167-0.389,3.056-1.778,3.056-1.778
		s-0.482,7,0.185,10.704c0.667,3.704,2.444,9.333,1.111,10.963c-1.333,1.63-6,4.815,2.889,11.926l1.926,10.519
		c0,0-5.111,1.704-6.741,7.926c-1.63,6.222-8.37,9.185-21.259,26.963c-12.889,17.778-25.111,17.778-37.111,40.889
		c-12,23.111-17.556,17.556-22.889,42c-1.723,7.895-2.095,15.065-1.638,21.321c-23.456,30.374-58.958,41.839-65.643,11.363
		c-0.445-2.031-3.157-2.606-4.234-0.828c-0.385,0.635-0.713,1.476-0.929,2.587c-1.037,5.333,0.593,25.926,28.741,25.185
		c22.298-0.587,40.307-13.808,46.835-19.282c1.444,2.934,3.012,5.083,4.424,6.319c5.333,4.667,11.556,6,11.556,6
		s-6.667,7.667-7.222,10.222c-0.556,2.556-1.111,3.667,1.556,4.333c2.667,0.667,45.333,2.111,50.222,3.556
		c4.889,1.444,9.778,1.333,10.778,0.556c1-0.778,7.667,2.833,8.611-2.333c0,0,1.222-1.778,0.333-2.889
		c-0.889-1.111-4.222-5.333-7.445-6.167c-3.222-0.833-22.889,0-26.833-0.833c-3.944-0.833-5.167-2.333-4.889-2.833
		s6.833-6.722,6.833-6.722s19.611-7.259,25.389-15.852c5.778-8.593,6.222-21.333,6.222-24.148c0-2.815,1.037-4.741,1.037-4.741
		s20-12,20.593-12c0.593,0,1.481,1.778,1.481,1.778s0.296,13.778,0.296,23.111c0,9.333-2.667,12.148,0.889,15.852
		c3.555,3.704,5.778,9.926,5.778,15.704c0,5.778,4.037,9.852,5.704,10.963c1.667,1.111,3.333,4.444,5.778,4.667
		c2.445,0.222,13.333,0.222,14-0.111c0.667-0.333,1.889-2.889,1.889-3.444c0-0.556,1.222-1.333,1-3.333c-0.222-2-2.333-5-5-6.667
		c-2.667-1.667-6.333-8.667-6.778-10.333c0,0,7.667,0,8,0c0.333,0,2.667-1.778,2.889-2.111c0.222-0.333-0.555,1.222,0.222-0.333
		c0.778-1.556,0.667-1.222,0.778-1.556c0.111-0.333,0.222-3-0.444-3.889c-0.667-0.889-6.778-4.667-7.222-5.222
		c-0.444-0.555-2.667-6-2.667-7s1.889-20.222,1.555-21.555c-0.333-1.333,1.778-22.222,4-24.556
		c2.222-2.333,10.778-10.333,14.111-24.111c3.333-13.778,7-30.778,6.556-38.667c-0.444-7.889-6.667-13.556-6.667-13.556
		s0-3.889-1.667-8.111c-1.667-4.222-3.889-8.556-3.889-8.556l1.778,0.111l-0.333-13.222l-2.222-0.889c0,0,1-1.444-1.333-6.667
		c-2.333-5.222-4.333-14.555-2-22.111C350.58,240.227,354.58,236.894,358.691,232.783z"/>
  </g>
</svg>
