<?xml version="1.0" encoding="utf-8"?>
<svg version="1.1" xmlns="http://www.w3.org/2000/svg" xmlns:xlink="http://www.w3.org/1999/xlink" x="0px" y="0px" viewBox="300 0 400 250" style="enable-background:new 0 0 750 500;" xml:space="preserve">
  <g id="OBJECTS">
    <path d="M398.736,36.321c0,0-3.852-0.074-6.593,1.259c-2.741,1.333-15.176,4.074-17.143,7.333
		c-1.968,3.259-5.301,0.815-6.412,4.296c-1.111,3.481-0.518,6.296-1.259,7.037c-0.741,0.741-6.519,5.481-6.741,5.778
		c-0.222,0.296-8.444,3.259-10.444,4.296c-2,1.037-7.482,4.074-7.482,4.074s0.37,4,0.704,4.519c0.333,0.519,1.222,1.111,1.222,1.111
		l0.407,1.519c0,0,1.593,5.667,9.815,8.037c8.222,2.37,16.222-0.37,16.222-0.37s-7.63,8.37-9.037,9.111
		c-1.407,0.741-4.667,2.167-4.667,6.278c0,4.111,1.889,5.445,3.056,4.278c1.167-1.167,3.333-5.833,4.111-5.944
		c0.778-0.111,1.111,0.111,1.111,0.111s-1.222,1-0.944,1.555c0.278,0.556,0.778,0.833,0.778,0.833s0.444,1.5,3.111,2.222
		c2.667,0.722,9.333-0.667,12.333-2.778c3-2.111,6.444-4.667,9.333-4.611c2.889,0.056,7.5,0,7.5,0s8.389,11.722,22.833,9.944
		c0,0-0.444,4.429,1.667,7.215c2.111,2.785,5,4.674,3.667,8.23c-1.333,3.556,0.444,8.222,6.444,12.444c0,0,1.222,4.445,4.667,7.889
		c3.444,3.445,5.111,9.889,3.556,12.667c-1.556,2.778-6.889,14-10.333,17.722c-3.445,3.722-10,12.389-12.445,17.5
		c-2.444,5.111-10.889,10-11.889,11.556c-1,1.555-7.296,3.852-8.926,6.074c-1.63,2.222-3.037,5.333-3.037,5.333s1.037,6,6.444,5.555
		c0,0,2.889,1.259,4.667,0.889c1.778-0.37,7.556-0.148,8.518-1.037c0.963-0.889,1.259-1.556,1.852-2.074
		c0.593-0.518,3.482-1.63,6.37-6.222c2.889-4.593,4.445-5.63,8.074-9.037c3.63-3.407,5.023-8.148,11.289-13.407
		c6.266-5.259,20.044-21.408,20.933-22.889c0.889-1.482,8.815-6.519,9.037-7.333c0.222-0.815,0.667,1.333,0.667,1.333
		s9.111,23.704,9.482,25.111c0.37,1.407-0.667,14.963-0.667,14.963s-5.778-0.741-6.741,0c-0.963,0.741-1.185,1.704-3.037,2.222
		c-1.852,0.519-3.592,1.852-3.63,5.037c-0.037,3.185,4.963,2.741,4.963,2.741s5.074,1.519,7.926,1.333
		c2.852-0.185,5.444-1.259,8.074-1.445c2.63-0.185,4.148-3.667,4.148-3.667s0,1.185,0-0.704c0-1.889,0.111-3.926,0.518-5.111
		c0.408-1.185,0.296-0.741,0.296-0.741s-1.222-7.741,1.222-9.407c2.444-1.667,3.222-2.148,2.593-4.815
		c-0.63-2.667-3.148-12.593-3.148-12.593s0.037,0.333,0-1.556c-0.037-1.889-1.111-16.055-1.111-16.055s4.389-0.333,8.111-2.611
		c3.722-2.278,11.056-1.278,16.556-2.778c5.5-1.5,14.222-7.667,14.222-7.667s13.333-6.407,19.852-9.815
		c6.519-3.407,14.519-5.481,14.519-5.481s1.63,12.593,3.407,17.333c1.778,4.741,4,11.63,3.889,13.407
		c-0.111,1.778,2.556,6.555,1.889,8.333c-0.667,1.778-1.333,7.667-1.333,8.667s-4.444,10.222-6,12c-1.556,1.778-4.278,7-5.278,7.389
		c-1,0.389-7.167,1.222-9,2.889c-1.833,1.667-4,5.889-3.778,6.167c0.222,0.278,1.333,0.833,1.333,0.833s0.222,1.778,1.611,2.167
		c1.389,0.389,6.556,0.333,6.556,0.333s4.611,0.333,6.833,0.278c2.222-0.055,4.278-1.167,4.278-1.167s2.111,0.611,3-0.5
		c0.889-1.111,5.444-12.5,7.555-16.722c2.111-4.222,4.956-7.889,5.589-9.111c0.633-1.222,5.411-5.444,5.078-10.333
		s-1.445-11.333,2.555-15.778c4-4.444,5.445-8.555,5.445-8.555s5.482,5.333,11.704,7.704c6.222,2.37,8.148,6.074,10.37,9.037
		c2.222,2.963,9.333,9.037,12,13.333c2.667,4.296,4.148,10.37,3.555,10.963c-0.593,0.593-3.852,2.519-4.667,4.148
		c-0.815,1.63-0.222,6.519-0.222,6.519s2.148,1.185,2.741,1.111c0.593-0.074,3.704,0.741,4.148,0.741c0.445,0-1.852,0,0.667-0.074
		c2.518-0.074,9.259-2.889,9.482-5.63c0.222-2.741,2.444-4.148,1.926-5.926c-0.519-1.778-6.889-16.444-6.889-16.444
		s-8-11.926-8-14.222c0-2.296-0.148-5.852-4.296-8.593c-4.148-2.741-9.482-8.593-10.148-16c-0.667-7.407-0.37-20.667,1.407-29.111
		c1.778-8.444,1.555-24.444-7.111-32.889c0,0,13.111-8,14-9.333c0.889-1.333,11.778,1.111,16.444-5.556l-2-0.222
		c0,0,9.222-6.222,11.222-13.333l-2.889-0.111c0,0,9.111-12.889,7.333-24.111l-1.778,1.111c0,0-2.556-8.445-8.556-9.889
		c-6-1.444-7.778,3.222-8.333,9c-0.556,5.778-4.222,24.333-21.889,27.555c-17.667,3.222-12.333,11.222-30.444,8
		c-18.111-3.222-41.222-1.556-55,0.444c-13.778,2-17.889,7.111-31.556,4.778c-13.667-2.333-28.111-5.889-46.444-5.222
		c0,0-2.222-2.111-7.222-3c-5-0.889-12.444-3.778-17.111-4.778c-4.667-1-17.556-2.222-22.667-4.889
		C404.217,35.654,398.736,36.321,398.736,36.321z"/>
  </g>
</svg>
