<?xml version="1.0" encoding="utf-8"?>
<svg version="1.1" xmlns="http://www.w3.org/2000/svg" xmlns:xlink="http://www.w3.org/1999/xlink" x="0px" y="0px" viewBox="50 0 350 280" style="enable-background:new 0 0 750 500;" xml:space="preserve">
  <g id="OBJECTS">
    <path d="M382.551,184.56c-0.556-2.111-12.444-14.556-15.667-17.778c-3.222-3.222-6.778-13.667-7.111-20.889
		c-0.333-7.222-2.556-14.111-3.889-17.111c-1.333-3-1.778-4.222-1.222-10.222s-4.222-14.889-10.222-21.222
		c-2.917-3.078-4.113-5.901-4.85-8.45c3.977-4.98,11.478-16.188,11.369-29.809l-0.889,2.667c0,0,2.518-17.037-5.185-26.963
		l0.593,3.852c0,0-8.296-15.259-28.296-14.074l3.407,1.926c0,0-17.481-2.37-29.037,10.815c-7.201,8.216-6.808,17.582-5.489,23.475
		c-18.097-0.093-37.893,4.584-41.326,4.821c-4.296,0.296-33.482,1.333-39.111-1.185c-5.63-2.519-12.593,0.148-12.593,0.148
		c-5.926-6.815-19.926-5.555-19.926-5.555s-4.445-3.111-9.556-7.333s-8.667-3.889-12.778-4.222
		c-4.111-0.333-11.667-7.444-11.667-8.889c0-1.444-8.111-19.333-10.778-18.778c-2.667,0.555-5.556,13.222-5.556,13.222
		c-6.889-4-10-15.333-11.556-11.778c-1.555,3.556,1.889,15,1.889,15l0.778,7.333c-13.111,5.222-14.778,15.667-14.778,15.667
		c-2.222,2.111-1.444,7-1.444,7L79.884,79.449c-0.944,2.056,0.278,4.833,1.611,6.333c1.333,1.5,3.5,2,3.5,2
		c6,5.555,16.444-0.056,18.778-2.278c2.333-2.222,10.167-5.889,10.167-5.889s-6.667,5.167-9.333,9.444
		c-2.667,4.278-6,5.445-9.444,10.556c-3.445,5.111-0.333,7.555,0.944,6.278c1.278-1.278,2.926-2.444,2.926-2.444
		c0.518,2,3.407,2.296,3.407,2.296s4,1.185,8.889-2c4.889-3.185,11.185-9.926,12.815-10c1.63-0.074,4.37,3.852,7.333,5.185
		c2.963,1.333,16.074,4.593,16.074,4.593c2.37,10.37,9.63,12.889,9.63,14.815c0,1.926,3.407,8.296,3.407,8.296
		s9.185,23.556,8.741,26.518c-0.445,2.963-17.63,21.778-23.63,27.259c-6,5.481-10.815,19.111-10.815,19.111
		s-4.148,11.778-4.37,12.37c-0.222,0.593-6.593,7.111-7.259,8.148c-0.667,1.037-0.37,2.963-0.741,4.593
		c-0.37,1.63,1.259,3.704,4,3.704c2.741,0,5.778-3.778,5.778-3.778s1.778-0.963,3.704-1.555c1.926-0.593,4.593-5.852,4.593-5.852
		l4.593-13.037l2.37-2.667c0,0,2.074-4,3.111-5.481c1.037-1.482,32-24.593,34.667-26.667c2.667-2.074,13.778-11.556,14.37-13.481
		c0.593-1.926-3.555-4.741-3.852-5.63c-0.296-0.889,1.926-2.815,1.926-2.815s9.185,3.704,11.407,8.296
		c2.222,4.593,5.63,19.259,5.778,30.519c0.148,11.259,3.556,23.555,3.556,25.185c0,1.63-1.482,15.926-5.556,16.741
		c-4.074,0.815-5.111,2.921-7.111,4.593c-2,1.672-2.593,5.185-2.593,5.185h7.63c0,0,10.296,0.222,10.667,0
		c0.37-0.222,4.37-7.852,5.111-11.852c0.741-4,4.593-10.815,5.273-12.741c0.68-1.926,0.06-4.889,0-6.815
		c-0.061-1.926,0-52.444,0-52.444l1.246-9.481c0,0,12.741-1.185,16.741-2.815c4-1.63,26.37-15.77,26.37-15.77
		s2.667,24.51,3.967,28.362c1.3,3.852,15.811,29.111,16.107,30.741c0.296,1.63,0.518,16.37,0.741,18.593
		c0.222,2.222-0.741,3.704-1.704,5.556c-0.963,1.852-9.63,12.963-11.555,13.556c-1.926,0.592-6.445,1.778-9.333,4.444
		c-2.889,2.667-2.074,4.889-2.074,4.889h8.889c0,0,9.111,0.148,9.63,0c0.519-0.148,4.963-7.185,6.815-9.556
		c1.852-2.37,8.889-7,8.889-7s9.556-14.444,9.889-15.667c0.333-1.222-8.111-26.333-8.111-26.333s1-18.333,1.333-19.444
		c0.333-1.111,10.222-10.556,10.222-10.556s10,14.444,12,17.444s7.667,4.222,9.222,5.556c1.556,1.333,18.333,14.333,18.333,14.333
		l11.778,17c0,0,0.778,17.222,0.611,18.333s-2.5,4.222-6.167,5.722c-3.667,1.5-3.278,6.222-2.167,7.278
		c1.111,1.056,8.5,0.444,8.5,0.444h6.222c0,0,2.556-4.333,2.889-4.555C381.551,224.894,383.106,186.671,382.551,184.56z
		 M301.506,62.4c-1.869-9.157,6.807-17.515,20.415-14.58c12.45,2.685,13.324,15.925,3.307,24.152
		C318.984,68.24,310.773,64.499,301.506,62.4z"/>
  </g>
</svg>
