<?xml version="1.0" encoding="utf-8"?>
<svg version="1.1" xmlns="http://www.w3.org/2000/svg" xmlns:xlink="http://www.w3.org/1999/xlink" x="0px" y="0px" viewBox="330 240 400 260" style="enable-background:new 0 0 750 500;" xml:space="preserve">
  <g id="OBJECTS">
    <path d="M705.071,336.56l-4.667-3l-13.556-13c0,0-1.222-9.889-1.333-10.222c-0.111-0.333-6.111-7.556-9.222-9.111
		c-3.111-1.556-7.333-2.889-7.333-2.889l-1.889-2.445c0,0,0.333-17.778-1.556-21c-1.889-3.222-3.556-3.889-6.444,1.556
		c0,0-2.111-7-5.667-1c-3.556,6-6.778,16-7.222,17c-0.444,1-0.467,1.667-0.467,1.667s-10.199,3.778-11.755,4
		c-1.555,0.222-10.889,0.667-10.889,0.667l1.444,0.667l-8.222,0.778l2,1.333c0,0-7.667,3.222-8,3.222
		c-0.333,0-22-4.444-27.556-4.333c-5.556,0.111-12.556,2.556-12.556,2.556s-24.889,1.556-28.111,1.556
		c-3.222,0-15-0.444-19.111-1.111c-4.111-0.667-28.104-3.333-37.108-2.222c-9.003,1.111-24.448,2.444-25.781,2.889
		c-1.333,0.444-16,6.222-16,6.222c-12.222-13.111-6.889-29.111,1.333-33.111s14.444,7.111,9.556,19.111
		c0,0,11.111-3.111,12.667-13.333l1.111,1.778c0,0-0.889-20.889-14.444-26l2.222-1.021c0,0-22.444-9.424-31.333,7.243v-4.889
		c0,0-7.111,13.214-6.889,22.607l-2.222-7.94c0,0-0.667,12.222,4.444,26.667l-4.473-5.556c0,0,6.029,18.889,15.584,30.889
		l0.667,3.556c0,0-8.667,8.444-9.556,11.111c-0.889,2.667-11.778,47.333-14.222,50c-2.444,2.667-29.333,26.444-30.889,30
		c-1.555,3.556-4.222,14-6.444,16.667c-2.222,2.667-3.333,5.333-3.333,5.333l-1.333,10.667c0,0-4.222,4-4.222,5.778
		c0,1.778,1.037,6.445,1.333,7.259c0.296,0.815,3.556,6.37,3.556,6.37h6.963c0,0,2.889-0.815,2.889-2
		c0-1.185-0.157-2.741-2.463-4.63l-0.306-1c0,0,0.546-8.444,0.917-9.482c0.37-1.037,8.296-13.852,8.296-13.852
		s13.482-16.296,19.111-21.63c5.63-5.333,9.63-7.556,9.852-7.778s22.074-11.926,23.333-13.407
		c1.259-1.482,11.111-13.111,11.111-13.111s15.259,15.555,16.148,16.889c0.889,1.333,4.741,15.704,4.741,15.704
		s-7.111,21.926-7.407,22.815c-0.296,0.889-0.593,5.778-0.593,5.778l4.296,5.778c0,0,14.518,15.704,16.444,16
		c1.926,0.296,3.704,1.185,3.704,1.185l4.889,6.222h4.741c0,0,5.778,0.963,8.222,0.889c2.444-0.074,3.481-0.889,3.481-0.889
		l4.37-0.593l0.593-2.074c0,0-4.296-6.37-7.037-6.741c-2.741-0.37-7.407-1.037-7.407-1.037s-16.593-11.926-17.778-15.778
		c-1.185-3.852,1.185-16.593,1.185-16.593s15.259-22.518,16.593-30.815c1.333-8.296,2.518-36.872,2.518-36.872
		s16.593,14.206,20,16.576c3.408,2.37,29.333,5.778,29.333,5.778l2.37,2.963l6.37,8.296l8.593,19.407l2.37,16.148
		c0,0-2.074,0.445-2.963,1.037c-0.889,0.593-3.407,4.148-3.407,4.148s-1.926,2.37-2.074,2.963c-0.148,0.593,0.889,2.222,0.889,2.222
		l4.296,2.519l7.407,0.741v4.592c0,0,17.778,15.556,18.519,16.148c0.741,0.593,5.63,2.074,5.63,2.074h16.593
		c0,0-0.296-2.074-0.741-2.667s-6.222-7.556-7.407-7.556c-1.185,0-8.889-0.444-8.889-0.444l-9.926-10.222l-0.741-4.148
		c0,0,10.222-1.926,13.482-3.556c3.259-1.63,6.518-5.778,6.518-5.778l-0.889-5.63c0,0-22.222-38.519-21.333-39.407
		c0.889-0.889,25.037-13.482,25.037-14.519c0-1.037,4.889-10.815,4.889-10.815l17.926-13.63c0,0,7.407,2.37,13.518,0.148
		l-1.222,1.889l12-7.333l3.449-0.778l1.884,1.111c0,0,13.111,11.667,14.444,12.667c1.333,1,5.889,1.222,5.889,1.222l1.889-1
		l0.556-2.333c0,0,5.111,4.667,7.111,4.111c2-0.556,2.556-1.667,1.333-2.333c-1.222-0.667-6.667-5.667-9.889-10.222
		c-3.222-4.555-9.667-14.667-9.667-14.667s13,8.889,17.778,10c4.778,1.111,9.222,0.444,11.778-1.556
		c2.556-2,4.667-6.111,4.667-6.111L705.071,336.56z M583.849,431.005c0,0,5.333,2.667,5.889,4c0.556,1.333-5.889,1.222-5.889,1.222
		V431.005z"/>
  </g>
</svg>
