<?xml version="1.0" encoding="utf-8"?>
<svg version="1.1" xmlns="http://www.w3.org/2000/svg" xmlns:xlink="http://www.w3.org/1999/xlink" x="0px" y="0px"
	 viewBox="400 0 350 280" style="enable-background:new 0 0 750 500;" xml:space="preserve">


<g id="OBJECTS">
	<path d="M697.565,101.08c0,0-12.552-16.69-12.69-17.448c-0.138-0.759-0.207-2.828-0.207-2.828s2.896-4.207,1.931-6.759
		c-0.966-2.552-3.034-10.897-3.31-12.138c-0.276-1.241-2.276-4.621-2.345-4.828c-0.069-0.207-0.621-4.552-0.621-4.552l0.414-1.586
		c0,0,17.035-13.173,17.38-14.552c0.345-1.379-0.276-1.345-0.276-1.345s-6.724-1.759-11.793,0c-5.069,1.759-8.483,2.69-14.69,2.69
		c-6.207,0-10.862,1.035-10.862,1.035s-9.828-2.483-17.069,0s-30.931,12.311-34.242,14.276c-3.31,1.965-6.724,9.31-6.724,9.31
		s-5.379-0.103-7.448,2.69c0,0-3.517-0.724-7.448-2.897c-3.931-2.172-9.207-5.276-19.655,0.207c0,0-4.655,0.724-11.793-2.483
		c-7.138-3.207-21.31-1.862-28.242-1.552c-6.931,0.31-13.448,0.517-13.448,0.517s5.276-4.655,5.897-10.517l-1.034,1.333
		c0,0-0.138-10.782-7.035-17.471l0.414,1.793c0,0-6.207-6.345-15.31-5.862c-9.104,0.483-14.966,6.69-14.966,6.69l2.552-3.586
		c0,0-11.897,6.414-14.276,19.242l-1.034-2.897c0,0-5.586,14.173,0,27.311l-3.414-2.379l3.414,4.759h-2.379l2.172,4.345
		c0,0-12.138,22.517-12.276,36.035c-0.138,13.517,17.242,38.207,19.448,42.897c2.207,4.69,1.241,17.38,1.241,17.38
		s-9.793,16.414-9.793,18.207c0,1.793,0.414,6.759,0.414,6.759s-2.069,8-2.207,9.517c-0.138,1.517-1.655,20.276-1.655,20.276
		s0.621,7.379,0.828,7.793c0.207,0.414,4.966,5.931,4.966,5.931h6.138h8.414l0.828-1.035l1.31-0.414c0,0,0.069-2.759-0.276-3.517
		c-0.345-0.759-3.655-4.414-4.414-5.31c-0.759-0.897-4.276-2.276-4.276-2.276s-0.069-14.207,0.345-15.517
		c0.414-1.31,5.31-15.724,5.31-15.724l0.552,2.276l13.793,27.793l6.828,13.379l3.517,1.379h7.241c0,0,0.207,3.655,3.586,5.31
		c0,0,0.759,4.207,3.517,5.448c2.759,1.241,5.517,0.345,5.517,0.345s4.621,0.965,6.069-1.31c1.448-2.276,2.207-4.138,1.172-6.621
		c-1.034-2.483-1.931-4.138-2.069-4.965c-0.138-0.828-0.069-3.793-0.069-3.793s13.172-19.035,13.172-20.276
		c0-1.241,1.241-7.241,1.241-7.241s4.345-18,4.345-19.035c0-1.034,6.621-20.483,6.621-20.483l13.448-12.828
		c0,0,13.862,0.207,18.621-1.862c4.759-2.069,7.241-2.069,7.862,8.897c0.621,10.966,3.655,40.621,4.621,43.104
		c0.965,2.483,2.483,8,2.069,12.276c-0.414,4.276-1.104,9.056-0.276,9.655c0.828,0.599,1.517,1.793,1.517,1.793l1.655,9.793
		l4.966,10.207l3.862,4.276h17.931c0,0,3.724-0.759,3.31-2.414c-0.414-1.655-1.448-8.345-7.862-8.966
		c-6.414-0.621-6.069-2.207-7.31-6.207c-1.241-4-2.828-8.897-3.31-11.655c-0.483-2.759,0.966-15.449,1.104-23.862
		c0.138-8.414,0.552-11.035,0.552-11.035s2.069-5.655,2.483-7.724c0.414-2.069,1.104-26.069,1.379-26.759
		c0.276-0.69,9.655-20.138,11.035-23.862c1.379-3.724,4.966-25.38,4.966-25.38s9.241-4,11.862-4.138
		c2.621-0.138,11.242,4.345,11.448,4.414c0.207,0.069,14.828,5.724,18.276,4.69c3.448-1.035,4.69-2.138,4.69-2.138
		s3.931-1.035,5.448-2.483c0,0,7.448-3.586,7.172-6.759C700.048,102.666,697.565,101.08,697.565,101.08z M539.15,149.977
		l-0.207,1.035c0,0,0,0-0.414,2.379c-0.414,2.379-3.517,28.138-5.069,36.104c-1.552,7.966-1.448,16.138-1.655,21.414
		c-0.207,5.276-2.897,6.724-3.621,7.655c-0.724,0.931-0.724,4.138-0.828,4.954c-0.104,0.816-9.104,13.667-9.104,13.667l-7.448-4.759
		c0,0-0.103-0.621-0.207-2.069c-0.103-1.448-7.034-14.586-8.897-22.655c-1.862-8.069,3.517-22.345,4.345-24.414
		c0.828-2.069,1.448-9.517,1.448-9.517l3.724-22.966l16.138-23.793c3.207,1.965,5.793,8.586,6.621,10.241
		c0.828,1.655,5.173,10.759,5.173,10.759V149.977z"/>
</g>
</svg>
