<?xml version="1.0" encoding="utf-8"?>
<svg version="1.1" xmlns="http://www.w3.org/2000/svg" xmlns:xlink="http://www.w3.org/1999/xlink" x="0px" y="0px"
	 viewBox="35 200 350 300" style="enable-background:new 0 0 750 500;" xml:space="preserve">


<g id="OBJECTS">
	<path d="M348.998,314.76c0,0,11.835-10.227,13.296-22.5l-1.899,3.068c0,0,0.731-17.095-8.913-28.491l0.292,2.63
		c0,0-11.104-15.195-27.322-17.387l1.899,3.068c0,0-17.971-6.136-30.244,9.205l2.922-1.023c0,0-6.721,10.812-4.529,18.994
		c2.192,8.182,12.857-4.091,12.857-4.091s16.51-5.99,21.185,12.857c0,0,3.36,18.263-23.815,18.994c0,0-24.643-14.513-38.669-15.487
		c-14.026-0.974-30.78-1.753-40.52-0.584c-9.74,1.169-20.845,6.234-32.533,5.455c-11.689-0.779-14.221-0.974-14.221-0.974
		s-9.546-3.701-16.364-4.481s-17.338-1.948-17.338-1.948s-0.195-5.357-6.526-6.234c-6.331-0.877-9.253-4.188-10.714-8.766
		c-1.461-4.578-2.922-16.461-6.136-17.825c-3.214-1.364-10.13,6.526-11.688,13.442l-11.981,2.143c0,0-6.331-3.799-10.617-6.624
		c-4.286-2.825-10.714-9.643-12.955-9.156c-2.24,0.487,2.435,11.981,2.922,12.857c0.487,0.877,5.747,9.643,5.747,9.643
		s-4.675,5.747-5.357,7.5c-0.682,1.753-1.364,8.085-1.071,8.474c0.292,0.39,0.877,0.779,0.877,0.779v3.02l-9.546,9.448
		c0,0-5.357,3.507-5.065,4.091c0.292,0.584,1.753,4.968,1.753,4.968s1.851,4.578,7.111,4.578c5.26,0,11.786-0.974,12.663-1.266
		s3.409-2.046,3.409-2.046s-9.74,13.539-10.812,15.39c-1.072,1.851-4.481,5.065-3.02,6.818c1.461,1.753,6.331,1.169,9.059-1.948
		c0,0,7.5,0.682,10.715-1.851c3.214-2.533,5.357-7.208,11.299-10.325c0,0,5.552,9.473,13.588,10.057c0,0,1.802,5.625,8.815,12.833
		c7.013,7.208,13.831,20.065,18.896,22.793c5.065,2.727,20.26,5.065,24.156,12.857c3.896,7.792,13.15,53.719,13.296,54.157
		c0.146,0.438-3.507,15.487-3.507,15.487l-2.338,4.237c0,0-7.159,1.899-8.328,6.721s1.169,7.305,2.776,7.451
		c1.607,0.146,10.374,0,10.374,0s0,4.237,0.292,4.675c0.292,0.438,8.182,0.73,9.351,0c1.169-0.73,2.63-2.63,2.63-2.63
		s8.036-2.192,8.913-3.653c0.877-1.461,8.328-21.331,8.766-22.939c0.438-1.607,0-2.484,0-2.484l1.315-1.023l-2.338-25.715
		c0,0-3.507-24.108-2.922-25.422c0.584-1.315,0.292-15.487,0.292-15.487s7.744-2.045,15.926-7.89
		c8.182-5.844,18.117-9.205,18.117-9.205s-2.192,11.835,0,16.364c2.192,4.529,12.565,32.874,12.419,34.189
		c-0.146,1.315-1.607,23.085-2.338,23.961c-0.73,0.877-22.646,15.049-22.646,15.049s-6.721,2.192-7.598,2.922
		c-0.877,0.731-4.822,5.698-4.822,5.698s-0.097,1.705,1.461,1.705c0,0,1.461,2.727,4.578,2.727c3.117,0,5.065-1.072,5.065-1.072
		s3.994,0.974,6.916,0.585c2.922-0.39,5.552-3.214,6.331-3.214c0.779,0,1.559-5.065,8.085-6.916
		c6.526-1.851,25.13-18.702,25.13-18.702l0.39,12.857c0,0-11.494,16.948-13.637,17.338c-2.143,0.39-11.007,1.851-11.007,1.851
		l-6.136,7.111c0,0,1.656,1.461,2.63,0.974c0,0,0.877,3.715,9.253,3.465c0,0,9.546,0.432,13.15-1.711
		c3.604-2.143,21.819-26.202,22.793-28.637c0.974-2.435,1.364-6.624,1.364-6.624s-3.312-24.546-3.604-30.098
		c-0.292-5.552,13.296-24.984,13.296-24.984v3.799c0,0,3.068-7.451,3.068-12.419l1.169,1.461l1.607-6.283l3.507,3.799
		c0,0,11.396-31.121,0.731-48.507c0,0,28.783-7.89,37.695-16.364L348.998,314.76z M192.907,466.711l-4.188,0.39l7.695-24.838
		c0,0,2.435,6.526,2.533,7.111C199.044,449.957,192.907,466.711,192.907,466.711z"/>
</g>
</svg>
